<mxfile host="app.diagrams.net" agent="Mozilla/5.0 (Windows NT 10.0; Win64; x64; rv:142.0) Gecko/20100101 Firefox/142.0" version="28.1.0">
  <diagram name="Seite-1" id="zwO3ISnnhgp3S8S0y8gy">
    <mxGraphModel dx="1426" dy="787" grid="1" gridSize="10" guides="1" tooltips="1" connect="1" arrows="1" fold="1" page="1" pageScale="1" pageWidth="1169" pageHeight="827" math="0" shadow="0">
      <root>
        <mxCell id="0" />
        <mxCell id="1" parent="0" />
        <mxCell id="wpsmjxdeJ3jYxl6LeSsZ-2" value="" style="rounded=1;whiteSpace=wrap;html=1;absoluteArcSize=1;arcSize=32;strokeWidth=2;" vertex="1" parent="1">
          <mxGeometry x="310" y="139" width="550" height="550" as="geometry" />
        </mxCell>
        <mxCell id="wpsmjxdeJ3jYxl6LeSsZ-6" style="rounded=0;orthogonalLoop=1;jettySize=auto;html=1;exitX=0.5;exitY=0.5;exitDx=0;exitDy=0;exitPerimeter=0;endArrow=none;endFill=0;" edge="1" parent="1" source="wpsmjxdeJ3jYxl6LeSsZ-3" target="wpsmjxdeJ3jYxl6LeSsZ-5">
          <mxGeometry relative="1" as="geometry" />
        </mxCell>
        <mxCell id="wpsmjxdeJ3jYxl6LeSsZ-3" value="Actor" style="shape=umlActor;verticalLabelPosition=bottom;verticalAlign=top;html=1;outlineConnect=0;" vertex="1" parent="1">
          <mxGeometry x="150" y="340" width="50" height="100" as="geometry" />
        </mxCell>
        <mxCell id="wpsmjxdeJ3jYxl6LeSsZ-5" value="Filter" style="ellipse;whiteSpace=wrap;html=1;" vertex="1" parent="1">
          <mxGeometry x="330" y="260" width="140" height="70" as="geometry" />
        </mxCell>
        <mxCell id="wpsmjxdeJ3jYxl6LeSsZ-10" value="" style="rounded=0;orthogonalLoop=1;jettySize=auto;html=1;endArrow=none;endFill=0;" edge="1" parent="1" source="wpsmjxdeJ3jYxl6LeSsZ-11" target="wpsmjxdeJ3jYxl6LeSsZ-5">
          <mxGeometry relative="1" as="geometry" />
        </mxCell>
        <mxCell id="wpsmjxdeJ3jYxl6LeSsZ-15" value="" style="rounded=0;orthogonalLoop=1;jettySize=auto;html=1;endArrow=none;endFill=0;" edge="1" parent="1" source="wpsmjxdeJ3jYxl6LeSsZ-7" target="wpsmjxdeJ3jYxl6LeSsZ-14">
          <mxGeometry relative="1" as="geometry" />
        </mxCell>
        <mxCell id="wpsmjxdeJ3jYxl6LeSsZ-7" value="Filter Data" style="ellipse;whiteSpace=wrap;html=1;" vertex="1" parent="1">
          <mxGeometry x="430" y="355" width="140" height="70" as="geometry" />
        </mxCell>
        <mxCell id="wpsmjxdeJ3jYxl6LeSsZ-13" style="rounded=0;orthogonalLoop=1;jettySize=auto;html=1;endArrow=none;endFill=0;" edge="1" parent="1" source="wpsmjxdeJ3jYxl6LeSsZ-11" target="wpsmjxdeJ3jYxl6LeSsZ-7">
          <mxGeometry relative="1" as="geometry" />
        </mxCell>
        <mxCell id="wpsmjxdeJ3jYxl6LeSsZ-11" value="Resive Data" style="ellipse;whiteSpace=wrap;html=1;" vertex="1" parent="1">
          <mxGeometry x="640" y="260" width="140" height="70" as="geometry" />
        </mxCell>
        <mxCell id="wpsmjxdeJ3jYxl6LeSsZ-18" style="rounded=0;orthogonalLoop=1;jettySize=auto;html=1;entryX=0.5;entryY=0.5;entryDx=0;entryDy=0;entryPerimeter=0;endArrow=none;endFill=0;" edge="1" parent="1" source="wpsmjxdeJ3jYxl6LeSsZ-14" target="wpsmjxdeJ3jYxl6LeSsZ-16">
          <mxGeometry relative="1" as="geometry" />
        </mxCell>
        <mxCell id="wpsmjxdeJ3jYxl6LeSsZ-14" value="Send Filterd Data" style="ellipse;whiteSpace=wrap;html=1;" vertex="1" parent="1">
          <mxGeometry x="670" y="355" width="140" height="70" as="geometry" />
        </mxCell>
        <mxCell id="wpsmjxdeJ3jYxl6LeSsZ-16" value="Promethus" style="shape=umlActor;verticalLabelPosition=bottom;verticalAlign=top;html=1;outlineConnect=0;" vertex="1" parent="1">
          <mxGeometry x="980" y="342" width="40" height="96" as="geometry" />
        </mxCell>
      </root>
    </mxGraphModel>
  </diagram>
</mxfile>
